<?xml version="1.0" encoding="utf-8"?>
<svg xmlns="http://www.w3.org/2000/svg" viewBox="0 0 128 128" width="512" height="512">
  <path fill="#fff" d="M97,109H22c-2.8,0-5-2.2-5-5V24c0-2.8,2.2-5,5-5h80c2.8,0,5,2.2,5,5v75C107,104.5,102.5,109,97,109z" />
  <path fill="#444b54" d="M80,112H22c-4.4,0-8-3.6-8-8V24c0-4.4,3.6-8,8-8h19c1.7,0,3,1.3,3,3s-1.3,3-3,3H22c-1.1,0-2,0.9-2,2v80c0,1.1,0.9,2,2,2h58c1.7,0,3,1.3,3,3S81.7,112,80,112z" />
  <path fill="#444b54" d="M102,16H54c-1.7,0-3,1.3-3,3v19c0,1.7,1.3,3,3,3h16c1.7,0,3-1.3,3-3V22h29c1.1,0,2,0.9,2,2v38c0,1.7,1.3,3,3,3s3-1.3,3-3V24C110,19.6,106.4,16,102,16z" />
  <path fill="#71c2ff" d="M107 72A20 20 0 1 0 107 112A20 20 0 1 0 107 72Z" transform="rotate(-45.001 107 92.002)" />
  <path fill="#fff" d="M120.2,94.4L120.2,94.4c-6.6,8.8-19.8,8.8-26.4,0l0,0c-1.1-1.4-1.1-3.4,0-4.8l0,0c6.6-8.8,19.8-8.8,26.4,0l0,0C121.3,91,121.3,93,120.2,94.4z" />
  <path fill="#71c2ff" d="M107 87A5 5 0 1 0 107 97A5 5 0 1 0 107 87Z" transform="rotate(-45.001 107 92.002)" />
</svg>