<?xml version="1.0" encoding="utf-8"?>
<svg xmlns="http://www.w3.org/2000/svg" viewBox="0 0 128 128" width="512" height="512">
  <path fill="#fff" d="M24,104V14c0-5.5,4.5-10,10-10h70c11,0,20,9,20,20v80c0,2.8-2.2,5-5,5H29C26.2,109,24,106.8,24,104z" />
  <path fill="#fff" d="M124,24h-10c-5.5,0-10-4.5-10-10V4h0C115,4,124,13,124,24L124,24z" />
  <path fill="#444b54" d="M127,24c0-0.1,0-0.3,0-0.4c-0.1-6-2.5-11.6-6.7-15.9C115.9,3.4,110.2,1,104,1c0,0,0,0,0,0H34c-7.2,0-13,5.8-13,13v7c0,1.7,1.3,3,3,3s3-1.3,3-3v-7c0-3.9,3.1-7,7-7h67v7c0,7.2,5.8,13,13,13h9.6c0.1,0,0.2,0,0.4,0c0,0,0,0,0,0c1.2,0,2.3-0.8,2.8-1.8C126.9,24.8,127,24.4,127,24z M107,14V7.3c3.4,0.6,6.5,2.2,9,4.7c2.5,2.5,4.1,5.6,4.7,9H114C110.1,21,107,17.9,107,14z" />
  <path fill="#fff" d="M105.7,47H72.2c-5.2,0-10-2.4-13.2-6.5l0,0c-3.2-4.1-8-6.5-13.2-6.5H19c-2.8,0-5,2.2-5,5v65c0,2.8,2.2,5,5,5h91.7V52C110.7,49.2,108.4,47,105.7,47z" />
  <g>
    <path fill="#fff" d="M56.4 59.099999999999994A25 25 0 1 0 56.4 109.1A25 25 0 1 0 56.4 59.099999999999994Z" transform="rotate(-82.484 56.437 84.053)" />
    <path fill="#fff" d="M5.7,122.3L5.7,122.3c-2-2.6-1.5-6.4,1.1-8.4l12.7-9.7c2.6-2,6.4-1.5,8.4,1.1l0,0c2,2.6,1.5,6.4-1.1,8.4l-12.7,9.7C11.5,125.4,7.8,124.9,5.7,122.3z" />
    <path fill="#71c2ff" d="M56.5,112.1c-1.2,0-2.5-0.1-3.7-0.2c-15.3-2-26.1-16.1-24.1-31.4c2-15.3,16.1-26.1,31.4-24.1c7.4,1,14,4.8,18.6,10.7c4.6,5.9,6.5,13.3,5.5,20.7l0,0c-1,7.4-4.8,14-10.7,18.6C68.5,110.1,62.6,112.1,56.5,112.1z M56.4,62.1c-10.9,0-20.3,8.1-21.8,19.1c-1.6,12,6.9,23.1,18.9,24.7c5.8,0.8,11.6-0.8,16.3-4.4c4.7-3.6,7.7-8.8,8.4-14.6c0,0,0,0,0,0c0.8-5.8-0.8-11.6-4.4-16.3s-8.8-7.7-14.6-8.4C58.3,62.1,57.4,62.1,56.4,62.1z" />
    <path fill="#71c2ff" d="M28,108.3c-0.9,0-1.8-0.4-2.4-1.2c-1-1.3-0.8-3.2,0.6-4.2l7.9-6.1c1.3-1,3.2-0.8,4.2,0.6c1,1.3,0.8,3.2-0.6,4.2l-7.9,6.1C29.2,108.1,28.6,108.3,28,108.3z" />
    <path fill="#71c2ff" d="M10.5,127.6c-0.4,0-0.8,0-1.2-0.1c-2.4-0.3-4.5-1.5-6-3.4l0,0c-3-3.9-2.3-9.6,1.7-12.6l12.7-9.7c1.9-1.5,4.3-2.1,6.7-1.8c2.4,0.3,4.5,1.5,6,3.4s2.1,4.3,1.8,6.7s-1.5,4.5-3.4,6L16,125.8C14.4,127,12.5,127.6,10.5,127.6z M8.1,120.5c0.5,0.6,1.2,1,2,1.1c0.8,0.1,1.6-0.1,2.2-0.6l12.7-9.7c0.6-0.5,1-1.2,1.1-2c0.1-0.8-0.1-1.6-0.6-2.2c-0.5-0.6-1.2-1-2-1.1c-0.8-0.1-1.6,0.1-2.2,0.6l-12.7,9.7C7.4,117.3,7.1,119.2,8.1,120.5L8.1,120.5z" />
  </g>
  <path fill="#444b54" d="M127,43.7l0-6.7c0-1.7-1.3-3-3-3c0,0,0,0,0,0c-1.7,0-3,1.4-3,3l0,17v48.3c0,2-1.6,3.7-3.7,3.7c-2,0-3.7-1.6-3.7-3.7V52c0-4.4-3.6-8-8-8H72.2c-4.2,0-8.3-2-10.8-5.3c-3.7-4.8-9.5-7.7-15.6-7.7H19c-4.4,0-8,3.6-8,8v51c0,1.7,1.3,3,3,3s3-1.3,3-3V39c0-1.1,0.9-2,2-2h26.8c4.2,0,8.3,2,10.8,5.3c3.7,4.8,9.5,7.7,15.6,7.7h33.5c1.1,0,2,0.9,2,2v50.3c0,1.3,0.3,2.5,0.7,3.7H87c-1.7,0-3,1.3-3,3s1.3,3,3,3h30c0,0,0.1,0,0.1,0c0.1,0,0.1,0,0.2,0c5.3,0,9.7-4.3,9.7-9.7V44C127,43.9,127,43.8,127,43.7z" />
</svg>