<?xml version="1.0" encoding="utf-8"?>
<svg xmlns="http://www.w3.org/2000/svg" viewBox="0 0 48 48" width="144" height="144">
  <path d="M23.958984 2 A 1.50015 1.50015 0 0 0 23.455078 2.1035156L2.9550781 10.103516 A 1.50015 1.50015 0 1 0 4.0449219 12.896484L24 5.109375L43.955078 12.896484 A 1.50015 1.50015 0 1 0 45.044922 10.103516L24.544922 2.1035156 A 1.50015 1.50015 0 0 0 23.958984 2 z M 9 15C7.343 15 6 16.343 6 18L6 39C6 40.657 7.343 42 9 42L20.554688 42C21.247688 43.191 22.523 44 24 44C25.477 44 26.752312 43.191 27.445312 42L39 42C40.657 42 42 40.657 42 39L42 18C42 16.343 40.657 15 39 15L30 15C27.515 15 25.5 17.015 25.5 19.5L25.5 38.5C25.5 39.328 24.828 40 24 40C23.172 40 22.5 39.328 22.5 38.5L22.5 19.5C22.5 17.015 20.485 15 18 15L9 15 z" fill="#5B5B5B" />
</svg>