<?xml version="1.0" encoding="utf-8"?>
<svg xmlns="http://www.w3.org/2000/svg" viewBox="0 0 48 48" width="50" height="50">
  <path d="M24 3 A 4 4 0 0 0 24 11 A 4 4 0 0 0 24 3 z M 22.5 13C20.032499 13 18 15.032499 18 17.5L18 27.5 A 1.50015 1.50015 0 0 0 19 28.933594L19 37 A 2.0002 2.0002 0 1 0 23 37L23 30L25 30L25 37 A 2.0002 2.0002 0 1 0 29 37L29 28.933594 A 1.50015 1.50015 0 0 0 30 27.5L30 17.5C30 15.032499 27.967501 13 25.5 13L22.5 13 z M 16 32.470703C10.427 33.098703 4 34.566 4 38C4 43.932 23.184 44 24 44C24.816 44 44 43.932 44 38C44 34.566 37.573 33.098703 32 32.470703L32 35.451172C37.171 36.074172 40.302406 37.211 40.941406 38C40.020406 39.137 33.929 41 24 41C14.071 41 7.9795938 39.137 7.0585938 38C7.6975938 37.211 10.829 36.074172 16 35.451172L16 32.470703 z" fill="#5B5B5B" />
</svg>