<?xml version="1.0" encoding="utf-8"?>
<svg xmlns="http://www.w3.org/2000/svg" viewBox="0 0 24 24" width="192" height="192">
  <path d="M3.742,16.675c-0.989,0.989-0.989,2.593,0,3.583c0.989,0.989,2.593,0.989,3.583,0c0.322-0.322,5.004-5.004,10.133-10.133l-3.583-3.583C8.746,11.671,4.064,16.353,3.742,16.675z" opacity=".35" fill="#02457A" />
  <path d="M20.258,7.325c0.989-0.989,0.989-2.593,0-3.583c-0.989-0.989-2.593-0.989-3.583,0c-0.172,0.172-0.055,0.055-2.8,2.8l3.583,3.583C20.203,7.379,20.086,7.497,20.258,7.325z" fill="#02457A" />
  <path fill-rule="evenodd" d="M10.576,2.29C10.655,2.114,10.83,2,11.023,2c0.193,0,0.369,0.114,0.448,0.29l0.369,0.824c0.007,0.015,0.016,0.029,0.028,0.041c0.012,0.012,0.026,0.022,0.041,0.028l0.824,0.369c0.177,0.079,0.29,0.254,0.29,0.448s-0.114,0.369-0.29,0.448L11.91,4.817c-0.015,0.007-0.029,0.016-0.041,0.028s-0.022,0.026-0.028,0.041L11.471,5.71C11.392,5.886,11.217,6,11.023,6c-0.193,0-0.369-0.114-0.448-0.29l-0.369-0.824C10.2,4.871,10.19,4.857,10.178,4.845s-0.026-0.022-0.041-0.028L9.314,4.448C9.137,4.369,9.023,4.193,9.023,4s0.114-0.369,0.29-0.448l0.824-0.369c0.015-0.007,0.029-0.016,0.041-0.028c0.012-0.012,0.022-0.026,0.028-0.041L10.576,2.29z" clip-rule="evenodd" fill="#02457A" />
  <path fill-rule="evenodd" d="M4.328,5.435C4.447,5.17,4.71,5,5,5s0.553,0.17,0.672,0.435l0.553,1.235c0.01,0.023,0.025,0.044,0.043,0.062s0.039,0.032,0.062,0.043l1.235,0.553C7.83,7.447,8,7.71,8,8S7.83,8.553,7.565,8.672L6.329,9.225C6.306,9.235,6.285,9.25,6.268,9.268C6.25,9.285,6.235,9.306,6.225,9.329l-0.553,1.235C5.553,10.83,5.29,11,5,11s-0.553-0.17-0.672-0.435L3.775,9.329C3.765,9.306,3.75,9.285,3.732,9.268C3.715,9.25,3.694,9.235,3.671,9.225L2.435,8.672C2.17,8.553,2,8.29,2,8s0.17-0.553,0.435-0.672l1.235-0.553c0.023-0.01,0.044-0.025,0.062-0.043s0.032-0.039,0.043-0.062L4.328,5.435z" clip-rule="evenodd" fill="#02457A" />
  <path fill-rule="evenodd" d="M18.552,15.29C18.631,15.114,18.807,15,19,15s0.369,0.114,0.448,0.29l0.369,0.824c0.007,0.015,0.016,0.029,0.028,0.041s0.026,0.022,0.041,0.028l0.824,0.369C20.886,16.631,21,16.807,21,17s-0.114,0.369-0.29,0.448l-0.824,0.369c-0.015,0.007-0.029,0.016-0.041,0.028s-0.022,0.026-0.028,0.041l-0.369,0.824C19.369,18.886,19.193,19,19,19s-0.369-0.114-0.448-0.29l-0.369-0.824c-0.007-0.015-0.016-0.029-0.028-0.041s-0.026-0.022-0.041-0.028l-0.824-0.369C17.114,17.369,17,17.193,17,17s0.114-0.369,0.29-0.448l0.824-0.369c0.015-0.007,0.029-0.016,0.041-0.028s0.022-0.026,0.028-0.041L18.552,15.29z" clip-rule="evenodd" fill="#02457A" />
</svg>