<?xml version="1.0" encoding="utf-8"?>
<svg xmlns="http://www.w3.org/2000/svg" viewBox="0 0 128 128" width="512" height="512">
  <path fill="#fff" d="M29,39C18,39,9,48,9,59s9,20,20,20h70c11,0,20-9,20-20s-9-20-20-20h-5v-5C94,17.4,80.6,4,64,4S34,17.4,34,34v5H29z" />
  <path fill="#444b54" d="M104,81.4c-1.3,0-2.6-0.9-2.9-2.3c-0.4-1.6,0.6-3.2,2.2-3.7c7.5-1.9,12.8-8.7,12.8-16.5c0-9.4-7.6-17-17-17h-5c-1.7,0-3-1.3-3-3v-5C91,19.1,78.9,7,64,7S37,19.1,37,34v5c0,1.7-1.3,3-3,3h-5c-9.4,0-17,7.6-17,17c0,7.8,5.2,14.5,12.7,16.5c1.6,0.4,2.6,2,2.2,3.7c-0.4,1.6-2,2.6-3.7,2.2C13.1,78.7,6,69.5,6,59c0-12.7,10.3-23,23-23h2v-2C31,15.8,45.8,1,64,1s33,14.8,33,33v2h2c12.7,0,23,10.3,23,23c0,10.5-7.1,19.7-17.3,22.3C104.5,81.3,104.2,81.4,104,81.4z" />
  <path fill="#fff" d="M64 52.8A25 25 0 1 0 64 102.8 25 25 0 1 0 64 52.8zM18.7 122.3L18.7 122.3c-2.3-2.3-2.3-6.1 0-8.5l11.3-11.3c2.3-2.3 6.1-2.3 8.5 0l0 0c2.3 2.3 2.3 6.1 0 8.5l-11.3 11.3C24.9 124.6 21.1 124.6 18.7 122.3z" />
  <path fill="#71c2ff" d="M64,105.8c-15.4,0-28-12.6-28-28s12.6-28,28-28s28,12.6,28,28S79.4,105.8,64,105.8z M64,55.8c-12.1,0-22,9.9-22,22s9.9,22,22,22s22-9.9,22-22S76.1,55.8,64,55.8z" />
  <path fill="#71c2ff" d="M38.5,105.5c-0.8,0-1.5-0.3-2.1-0.9c-1.2-1.2-1.2-3.1,0-4.2l7.1-7.1c1.2-1.2,3.1-1.2,4.2,0s1.2,3.1,0,4.2l-7.1,7.1C40.1,105.2,39.3,105.5,38.5,105.5z" />
  <path fill="#71c2ff" d="M23,127.1c-2.4,0-4.7-0.9-6.4-2.6c-1.7-1.7-2.6-4-2.6-6.4s0.9-4.7,2.6-6.4l11.3-11.3c3.5-3.5,9.2-3.5,12.7,0c1.7,1.7,2.6,4,2.6,6.4c0,2.4-0.9,4.7-2.6,6.4l-11.3,11.3C27.7,126.1,25.4,127.1,23,127.1z M34.3,103.7c-0.8,0-1.5,0.3-2.1,0.9l-11.3,11.3c-1.2,1.2-1.2,3.1,0,4.2c1.2,1.2,3.1,1.2,4.2,0l11.3-11.3c0.6-0.6,0.9-1.3,0.9-2.1s-0.3-1.6-0.9-2.1C35.8,104,35.1,103.7,34.3,103.7z" />
</svg>