<?xml version="1.0" encoding="utf-8"?>
<svg xmlns="http://www.w3.org/2000/svg" viewBox="0 0 24 24" width="192" height="192">
  <path d="M21.427,12.015l-1.73-2.106C19.215,5.505,16,2,11,2c-5.637,0-8.977,3.928-8.977,9c0,3.638,1.887,5.297,2.656,7.832C5.067,20.11,6.222,21,7.557,21l8.628,0c1.429,0,2.66-1.009,2.941-2.41l0.524-2.614l1.124-0.611C21.995,14.7,22.309,13.089,21.427,12.015z" opacity=".35" fill="#02457A" />
  <circle cx="10" cy="13" r="3" fill="#02457A" />
  <circle cx="18" cy="18" r="2" fill="#02457A" />
  <path d="M10,1C9.448,1,9,1.448,9,2v9h2V2C11,1.448,10.552,1,10,1z" fill="#02457A" />
  <path d="M18.119,19h-2.291c-0.801,0-1.555-0.312-2.121-0.879l-4.414-4.414c-0.391-0.391-0.391-1.023,0-1.414s1.023-0.391,1.414,0l4.414,4.414C15.308,16.894,15.565,17,15.828,17h2.291c0.553,0,1,0.447,1,1S18.672,19,18.119,19z" fill="#02457A" />
</svg>