<?xml version="1.0" encoding="utf-8"?>
<svg xmlns="http://www.w3.org/2000/svg" viewBox="0 0 48 48" width="144" height="144">
  <path d="M14.5 6C9.813 6 6 9.813 6 14.5C6 19.187 9.813 23 14.5 23C19.187 23 23 19.187 23 14.5C23 9.813 19.187 6 14.5 6 z M 33.5 6C28.823344 6 25 9.8233481 25 14.5C25 19.176652 28.823344 23 33.5 23C38.176656 23 42 19.176652 42 14.5C42 9.8233481 38.176656 6 33.5 6 z M 33.5 9C33.634798 9 33.766174 9.0101718 33.898438 9.0195312L38.980469 14.101562C38.989828 14.233826 39 14.365202 39 14.5C39 15.478433 38.747822 16.392595 38.306641 17.185547L30.814453 9.6933594C31.607405 9.252178 32.521566 9 33.5 9 z M 28.693359 11.814453L36.185547 19.306641C35.392595 19.747822 34.478434 20 33.5 20C33.365202 20 33.233826 19.989828 33.101562 19.980469L28.019531 14.898438C28.010172 14.766174 28 14.634798 28 14.5C28 13.521567 28.252178 12.607405 28.693359 11.814453 z M 14.5 25C9.813 25 6 28.813 6 33.5C6 38.187 9.813 42 14.5 42C19.187 42 23 38.187 23 33.5C23 28.813 19.187 25 14.5 25 z M 33.5 25C28.823344 25 25 28.823348 25 33.5C25 38.176652 28.823344 42 33.5 42C38.176656 42 42 38.176652 42 33.5C42 28.823348 38.176656 25 33.5 25 z M 14.5 27C15.605 27 16.5 27.895 16.5 29C16.5 30.105 15.605 31 14.5 31C13.395 31 12.5 30.105 12.5 29C12.5 27.895 13.395 27 14.5 27 z M 32 28.300781L32 32L28.300781 32C28.819924 30.186503 30.186503 28.819925 32 28.300781 z M 35 28.300781C36.813497 28.819925 38.180076 30.186503 38.699219 32L35 32L35 28.300781 z M 10 31.5C11.105 31.5 12 32.395 12 33.5C12 34.605 11.105 35.5 10 35.5C8.895 35.5 8 34.605 8 33.5C8 32.395 8.895 31.5 10 31.5 z M 19 31.5C20.105 31.5 21 32.395 21 33.5C21 34.605 20.105 35.5 19 35.5C17.895 35.5 17 34.605 17 33.5C17 32.395 17.895 31.5 19 31.5 z M 28.300781 35L32 35L32 38.699219C30.186503 38.180075 28.819924 36.813497 28.300781 35 z M 35 35L38.699219 35C38.180076 36.813497 36.813497 38.180075 35 38.699219L35 35 z M 14.5 36C15.605 36 16.5 36.895 16.5 38C16.5 39.105 15.605 40 14.5 40C13.395 40 12.5 39.105 12.5 38C12.5 36.895 13.395 36 14.5 36 z" fill="#5B5B5B" />
</svg>