<?xml version="1.0" encoding="utf-8"?>
<svg xmlns="http://www.w3.org/2000/svg" viewBox="0 0 48 48" width="144" height="144">
  <path d="M12.5 4C10.019 4 8 6.019 8 8.5L8 39.5C8 41.981 10.019 44 12.5 44L35.5 44C37.981 44 40 41.981 40 39.5L40 20L28.5 20C26.019 20 24 17.981 24 15.5L24 4L12.5 4 z M 27 4.8789062L27 15.5C27 16.327 27.673 17 28.5 17L39.121094 17L27 4.8789062 z M 24 24C24.828 24 25.5 24.672 25.5 25.5L25.5 29L29 29C29.828 29 30.5 29.672 30.5 30.5C30.5 31.328 29.828 32 29 32L25.5 32L25.5 35.5C25.5 36.328 24.828 37 24 37C23.172 37 22.5 36.328 22.5 35.5L22.5 32L19 32C18.172 32 17.5 31.328 17.5 30.5C17.5 29.672 18.172 29 19 29L22.5 29L22.5 25.5C22.5 24.672 23.172 24 24 24 z" fill="#5B5B5B" />
</svg>