<?xml version="1.0" encoding="utf-8"?>
<svg xmlns="http://www.w3.org/2000/svg" viewBox="0 0 30 30" width="50" height="50">
  <path d="M15 1 A 3 3 0 0 0 12 4 A 3 3 0 0 0 15 7 A 3 3 0 0 0 18 4 A 3 3 0 0 0 15 1 z M 14 9C12.35503 9 11 10.35503 11 12L11 16 A 1.0001 1.0001 0 0 0 12 17.013672L12 20.966797C12 22.536797 12.463203 23 13.033203 23C13.577203 23 14.028453 22.578156 14.064453 22.035156L14.501953 17.464844C14.519953 17.203844 14.737 17 15 17C15.263 17 15.480047 17.204797 15.498047 17.466797L15.935547 22.035156C15.971547 22.577156 16.422797 23 16.966797 23C17.536797 23 18 22.536797 18 20.966797L18 17.013672 A 1.0001 1.0001 0 0 0 19 16L19 12C19 10.35503 17.64497 9 16 9L14 9 z M 10 17.427734C6.075 18.120734 3 19.659 3 22C3 25.283 9.037 27 15 27C20.963 27 27 25.283 27 22C27 19.659 23.925 18.120734 20 17.427734L20 19.464844C23.118 20.078844 25 21.181 25 22C25 23.194 21.012 25 15 25C8.988 25 5 23.194 5 22C5 21.181 6.882 20.078844 10 19.464844L10 17.427734 z" fill="#5B5B5B" />
</svg>