<?xml version="1.0" encoding="utf-8"?>
<svg xmlns="http://www.w3.org/2000/svg" viewBox="0 0 64 64" width="50" height="50">
  <path d="M13.222656 6L12.853516 8.5742188C12.610516 10.274219 11.274219 11.610516 9.5742188 11.853516L7 12.222656L7 13.777344L9.5742188 14.146484C11.274219 14.389484 12.610516 15.725781 12.853516 17.425781L13.222656 20L14.777344 20L15.146484 17.425781C15.389484 15.725781 16.725781 14.389484 18.425781 14.146484L21 13.777344L21 12.222656L18.425781 11.853516C16.725781 11.610516 15.389484 10.274219 15.146484 8.5742188L14.777344 6L13.222656 6 z M 31 6L30.763672 7.6542969C30.607672 8.7472969 29.74925 9.6076719 28.65625 9.7636719L27 10L27 11L28.654297 11.236328C29.747297 11.392328 30.607672 12.25075 30.763672 13.34375L31 15L32 15L32.236328 13.345703C32.392328 12.252703 33.25075 11.392328 34.34375 11.236328L36 11L36 10L34.345703 9.7636719C33.252703 9.6076719 32.392328 8.74925 32.236328 7.65625L32 6L31 6 z M 48.677734 8.0039062 A 6.243 2.443 44.999 0 0 47.84375 8.3261719 A 6.243 2.443 44.999 0 0 47.839844 8.3300781L8.171875 47.998047C6.609875 49.560047 6.609875 52.09425 8.171875 53.65625L11.34375 56.828125C12.90575 58.391125 15.438 58.391125 17 56.828125L56.667969 17.160156 A 6.243 2.443 44.999 0 0 56.671875 17.15625 A 6.243 2.443 44.999 0 0 48.677734 8.0039062 z M 49.060547 12.767578 A 6.243 2.443 44.999 0 0 52.234375 15.9375L38.171875 30L34.998047 26.828125L49.060547 12.767578 z M 48 39L47.527344 42.310547C47.215344 44.496547 45.496547 46.215344 43.310547 46.527344L40 47L40 49L43.310547 49.472656C45.496547 49.784656 47.215344 51.503453 47.527344 53.689453L48 57L50 57L50.472656 53.689453C50.784656 51.503453 52.503453 49.784656 54.689453 49.472656L58 49L58 47L54.689453 46.527344C52.503453 46.215344 50.784656 44.496547 50.472656 42.310547L50 39L48 39 z" fill="#5B5B5B" />
</svg>