<?xml version="1.0" encoding="utf-8"?>
<svg xmlns="http://www.w3.org/2000/svg" viewBox="0 0 48 48" width="144" height="144">
  <path d="M12.5 4C10.019 4 8 6.019 8 8.5L8 39.5C8 41.981 10.019 44 12.5 44L22.042969 44C22.078969 43.751 22.138516 43.504625 22.228516 43.265625L22.230469 43.267578C22.283469 43.043578 22.350922 42.809406 22.419922 42.566406L22.958984 40.683594L23.744141 37.9375C23.977141 37.1305 24.415719 36.390922 25.011719 35.794922L36.810547 23.994141C37.730547 23.073141 38.828047 22.465453 39.998047 22.189453L39.998047 20L28.5 20C26.019 20 24 17.981 24 15.5L24 4L12.5 4 z M 27 4.8789062L27 15.5C27 16.327 27.673 17 28.5 17L39.121094 17L27 4.8789062 z M 41.498047 24C41.224047 24.001 40.946969 24.025172 40.667969 24.076172C39.783969 24.235172 38.939563 24.696156 38.226562 25.410156L26.427734 37.208984C26.070734 37.565984 25.807969 38.011141 25.667969 38.494141L24.097656 43.974609C24.025656 44.164609 23.993 44.365406 24 44.566406C24.013 44.929406 24.155594 45.288406 24.433594 45.566406C24.710594 45.843406 25.067688 45.986 25.429688 46C25.630688 46.007 25.834391 45.975344 26.025391 45.902344L31.505859 44.332031C31.988859 44.192031 32.431062 43.930266 32.789062 43.572266L44.589844 31.773438C45.303844 31.060437 45.764828 30.216031 45.923828 29.332031C45.973828 29.053031 45.997047 28.775953 45.998047 28.501953C46.001047 27.307953 45.540687 26.179312 44.679688 25.320312C43.820687 24.460313 42.692047 23.998 41.498047 24 z" fill="#5B5B5B" />
</svg>