<?xml version="1.0" encoding="utf-8"?>
<svg xmlns="http://www.w3.org/2000/svg" viewBox="0 0 48 48" width="144" height="144">
  <path d="M24 6.0117188C22.96575 6.0117188 21.932156 6.2355937 20.972656 6.6835938L2.8652344 15.138672C2.3372344 15.384672 2 15.916047 2 16.498047C2 17.080047 2.3372344 17.611422 2.8652344 17.857422L20.972656 26.3125C21.949656 26.7685 22.974 26.996094 24 26.996094C25.026 26.996094 26.051344 26.7685 27.027344 26.3125L34 23.056641L34 35.503906 A 2.5 2.5 0 0 0 35.5 40 A 2.5 2.5 0 0 0 37 35.501953L37 21.835938 A 1.50015 1.50015 0 0 0 36.759766 20.765625 A 1.50015 1.50015 0 0 0 36.685547 20.664062 A 1.50015 1.50015 0 0 0 35.914062 20.138672 A 1.50015 1.50015 0 0 0 35.910156 20.136719L26.267578 15.666016C26.100483 15.481771 26 15.245683 26 14.998047C26 14.857047 26.03075 14.715078 26.09375 14.580078C26.32475 14.078078 26.921875 13.86175 27.421875 14.09375L37.857422 18.931641C38.554422 19.254641 39 19.953656 39 20.722656L45.134766 17.857422C45.154766 17.848422 45.160734 17.839078 45.177734 17.830078C45.465734 17.683078 45.712375 17.448813 45.859375 17.132812C46.209375 16.381813 45.884766 15.488672 45.134766 15.138672L27.027344 6.6835938C26.067844 6.2355937 25.03425 6.0117187 24 6.0117188 z M 10 24.396484L10 34.529297C10 36.678297 11.243969 38.636625 13.167969 39.515625C16.826969 41.186625 20.345875 42 23.921875 42L24 42L24.005859 42C26.723859 41.99 29.523422 41.503125 32.232422 40.578125C31.473422 39.773125 31 38.694 31 37.5C31 36.437 31.384 35.473125 32 34.703125L32 27.197266L27.873047 29.123047C26.635047 29.702047 25.332 29.996094 24 29.996094C22.668 29.996094 21.365953 29.702047 20.126953 29.123047L10 24.396484 z" fill="#5B5B5B" />
</svg>