<?xml version="1.0" encoding="utf-8"?>
<svg xmlns="http://www.w3.org/2000/svg" viewBox="0 0 48 48" width="144" height="144">
  <path d="M4.5 5 A 1.50015 1.50015 0 1 0 4.5 8L5 8L5 28.035156C3.306 28.278156 2 29.74 2 31.5L2 41.5C2 42.328 2.672 43 3.5 43L13 43C13.552 43 14 42.552 14 42L14 35C14 34.448 14.448 34 15 34L18 34C18.552 34 19 34.448 19 35L19 42C19 42.552 19.448 43 20 43L29.5 43C30.328 43 31 42.328 31 41.5L31 31.5C31 29.74 29.694 28.278156 28 28.035156L28 8L28.5 8 A 1.50015 1.50015 0 1 0 28.5 5L4.5 5 z M 12 12L14 12C14.552 12 15 12.448 15 13L15 15C15 15.552 14.552 16 14 16L12 16C11.448 16 11 15.552 11 15L11 13C11 12.448 11.448 12 12 12 z M 19 12L21 12C21.552 12 22 12.448 22 13L22 15C22 15.552 21.552 16 21 16L19 16C18.448 16 18 15.552 18 15L18 13C18 12.448 18.448 12 19 12 z M 30 12L30 26.603516C31.79 27.525516 33 29.4 33 31.5L33 41.5C33 42.039 32.866437 42.544 32.648438 43L44.5 43C45.33 43 46 42.33 46 41.5L46 17.5C46 14.47 43.53 12 40.5 12L30 12 z M 12 19L14 19C14.552 19 15 19.448 15 20L15 22C15 22.552 14.552 23 14 23L12 23C11.448 23 11 22.552 11 22L11 20C11 19.448 11.448 19 12 19 z M 19 19L21 19C21.552 19 22 19.448 22 20L22 22C22 22.552 21.552 23 21 23L19 23C18.448 23 18 22.552 18 22L18 20C18 19.448 18.448 19 19 19 z M 37 19L39 19C39.552 19 40 19.448 40 20L40 22C40 22.552 39.552 23 39 23L37 23C36.448 23 36 22.552 36 22L36 20C36 19.448 36.448 19 37 19 z M 12 26L14 26C14.552 26 15 26.448 15 27L15 29C15 29.552 14.552 30 14 30L12 30C11.448 30 11 29.552 11 29L11 27C11 26.448 11.448 26 12 26 z M 19 26L21 26C21.552 26 22 26.448 22 27L22 29C22 29.552 21.552 30 21 30L19 30C18.448 30 18 29.552 18 29L18 27C18 26.448 18.448 26 19 26 z M 37 26L39 26C39.552 26 40 26.448 40 27L40 29C40 29.552 39.552 30 39 30L37 30C36.448 30 36 29.552 36 29L36 27C36 26.448 36.448 26 37 26 z M 37 33L39 33C39.552 33 40 33.448 40 34L40 36C40 36.552 39.552 37 39 37L37 37C36.448 37 36 36.552 36 36L36 34C36 33.448 36.448 33 37 33 z M 7 34L9 34C9.552 34 10 34.448 10 35L10 37C10 37.552 9.552 38 9 38L7 38C6.448 38 6 37.552 6 37L6 35C6 34.448 6.448 34 7 34 z M 24 34L26 34C26.552 34 27 34.448 27 35L27 37C27 37.552 26.552 38 26 38L24 38C23.448 38 23 37.552 23 37L23 35C23 34.448 23.448 34 24 34 z" fill="#5B5B5B" />
</svg>