<?xml version="1.0" encoding="utf-8"?>
<svg xmlns="http://www.w3.org/2000/svg" viewBox="0 0 48 48" width="144" height="144">
  <path d="M13 6C7.477 6 3 10.477 3 16C3 19.699792 5.0132932 22.922738 8 24.652344L8 39.5C8 39.897 8.1584531 40.278547 8.4394531 40.560547L11.439453 43.560547C11.732453 43.853547 12.116 44 12.5 44C12.884 44 13.267547 43.853547 13.560547 43.560547L17.560547 39.560547C18.146547 38.974547 18.146547 38.025453 17.560547 37.439453L15.621094 35.5L17.560547 33.560547C18.146547 32.974547 18.146547 32.025453 17.560547 31.439453L15.621094 29.5L17.560547 27.560547C17.842547 27.278547 18 26.897 18 26.5L18 24.652344C20.986707 22.922738 23 19.699792 23 16C23 10.477 18.523 6 13 6 z M 13 12C14.105 12 15 12.895 15 14C15 15.105 14.105 16 13 16C11.895 16 11 15.105 11 14C11 12.895 11.895 12 13 12 z M 25.650391 13C25.880391 13.96 26 14.97 26 16C26 19.38 24.659375 22.600234 22.359375 24.990234C22.409375 25.000234 22.45 25 22.5 25L41.5 25C43.43 25 45 23.43 45 21.5L45 16.5C45 14.57 43.43 13 41.5 13L25.650391 13 z M 20.740234 28C20.550234 28.55 20.249609 29.06 19.849609 29.5C21.379609 31.2 21.379609 33.8 19.849609 35.5C20.969609 36.75 21.270234 38.49 20.740234 40L41.5 40C43.43 40 45 38.43 45 36.5L45 31.5C45 29.57 43.43 28 41.5 28L20.740234 28 z" fill="#5B5B5B" />
</svg>