<?xml version="1.0" encoding="utf-8"?>
<svg xmlns="http://www.w3.org/2000/svg" viewBox="0 0 48 48" width="144" height="144">
  <path d="M24 10C17.72 10 12.551969 14.85 12.042969 21L11.5 21C6.813 21 3 24.813 3 29.5C3 34.187 6.813 38 11.5 38L20.5 38L20.5 33.355469C20.18 33.450469 19.844 33.5 19.5 33.5C18.565 33.5 17.685391 33.135609 17.025391 32.474609C16.363391 31.813609 16 30.935 16 30C16 29.065 16.364391 28.186391 17.025391 27.525391L21.525391 23.025391C22.186391 22.364391 23.065 22 24 22C24.935 22 25.813609 22.364391 26.474609 23.025391L30.974609 27.523438C31.636609 28.185438 32 29.065 32 30C32 30.935 31.635609 31.813609 30.974609 32.474609C30.313609 33.135609 29.435 33.5 28.5 33.5C28.156 33.5 27.82 33.450469 27.5 33.355469L27.5 38L36.5 38C41.187 38 45 34.187 45 29.5C45 24.813 41.187 21 36.5 21L35.957031 21C35.448031 14.85 30.28 10 24 10 z M 23.976562 23.978516 A 1.50015 1.50015 0 0 0 22.802734 24.576172L18.439453 28.939453 A 1.50015 1.50015 0 1 0 20.560547 31.060547L22.5 29.121094L22.5 40.5 A 1.50015 1.50015 0 1 0 25.5 40.5L25.5 29.121094L27.439453 31.060547 A 1.50015 1.50015 0 1 0 29.560547 28.939453L25.189453 24.568359 A 1.50015 1.50015 0 0 0 23.976562 23.978516 z" fill="#5B5B5B" />
</svg>