<?xml version="1.0" encoding="utf-8"?>
<svg xmlns="http://www.w3.org/2000/svg" x="0" y="0" viewBox="0 0 128 128" width="512" height="512">
  <path fill="#fff" d="M116.8,59l-16.2-38.8C99,16.4,95.4,14,91.3,14H34.8c-4.1,0-7.8,2.5-9.3,6.4L10.5,59L5,74v19v31h118V93V74 L116.8,59z" />
  <path fill="#1fd4af" d="M86,31c0-11,9-20,20-20c5.2,0,10,2,13.5,5.3c0.4,0.4-0.7,1-0.9,1.6c-0.1,0.6,0.7,1.3,1,1.7 c0.4,0.5,1.5,1.6,2.4,1.8c0.6,0.1,1.1-0.7,1.2-0.4c1.7,2.9,2.7,6.4,2.7,10c0,11-9,20-20,20S86,42,86,31z" />
  <path fill="#fff" d="M119.5,16.3l-13.4,15l-4.8-6.2c-1-1.3-2.9-1.5-4.2-0.5c-1.3,1-1.5,2.9-0.5,4.2l7,9c0.5,0.7,1.4,1.1,2.3,1.2 c0,0,0.1,0,0.1,0c0.9,0,1.7-0.4,2.2-1l15.1-17C122.3,19.3,121,17.7,119.5,16.3z" />
  <g>
    <path fill="#444b54" d="M123 127H5c-1.7 0-3-1.3-3-3V74c0-1.7 1.3-3 3-3h20.9c5.4 0 10.4 2.1 14.2 5.9 2.7 2.7 6.2 4.1 10 4.1h25.9c3.8 0 7.3-1.5 10-4.1 3.8-3.8 8.8-5.9 14.2-5.9H123c1.7 0 3 1.3 3 3v50C126 125.7 124.7 127 123 127zM8 121h112V77h-19.9c-3.8 0-7.3 1.5-10 4.1-3.8 3.8-8.8 5.9-14.2 5.9H50.1c-5.4 0-10.4-2.1-14.2-5.9-2.7-2.7-6.2-4.1-10-4.1H8V121zM10.5 62c-.4 0-.7-.1-1.1-.2-1.5-.6-2.3-2.3-1.7-3.9l15-38.6c2-5 6.7-8.3 12.1-8.3H76c1.7 0 3 1.3 3 3s-1.3 3-3 3H34.8c-2.9 0-5.5 1.8-6.5 4.5l-15 38.6C12.8 61.3 11.7 62 10.5 62z" />
  </g>
</svg>