<?xml version="1.0" encoding="utf-8"?>
<svg xmlns="http://www.w3.org/2000/svg" viewBox="0 0 64 64" width="512" height="512">
  <path d="M32,4C16.561,4,4,16.561,4,32s12.561,28,28,28s28-12.561,28-28S47.439,4,32,4z M39,40.6v3.534H25v-1.9c0-5.4,1.732-8.2,5.499-10.367c2.532-1.433,4.899-1.767,4.899-5.034c0-2-1.067-3.134-3.233-3.134c-1.9,0-3.366,0.501-4.601,2.5l-2.399-3.1c1.699-2.167,3.966-3.234,7.201-3.234c3.865,0,6.634,2.467,6.634,6.768c0,4.533-2.633,6.334-6.001,8.067c-2.834,1.467-3.933,3.333-3.933,5.899H39z" fill="#5B5B5B" />
</svg>