<?xml version="1.0" encoding="utf-8"?>
<svg xmlns="http://www.w3.org/2000/svg" viewBox="0 0 48 48" width="480" height="480">
  <path fill="#546E7A" d="M33,10.5c0.5-0.7,1.4-0.9,2.1-0.4c3.5,2.3,6.8,7.8,7.4,13.4c0.1,0.8-0.5,1.6-1.3,1.7c-0.1,0-0.1,0-0.2,0c-0.8,0-1.4-0.6-1.5-1.3c-0.5-4.6-3.4-9.4-6-11.2C32.7,12.1,32.5,11.2,33,10.5z M19.1,9.6c3.1-1,7.4-0.8,10.7,0.6c0.2,0.1,0.4,0.1,0.6,0.1c0.6,0,1.1-0.3,1.4-0.9c0.3-0.8,0-1.6-0.8-2c-4-1.7-9-2-12.9-0.7c-0.8,0.3-1.2,1.1-0.9,1.9C17.4,9.5,18.3,9.9,19.1,9.6z M7.7,17.8C8,17.9,8.2,18,8.5,18c0.5,0,1-0.3,1.3-0.7c1.5-2.4,3.6-4.2,5.6-5.5c0.7-0.5,0.9-1.4,0.4-2.1c-0.5-0.7-1.4-0.9-2.1-0.4c-2.4,1.6-4.8,3.6-6.5,6.5C6.8,16.4,7,17.4,7.7,17.8z M24.7,27.1c0.2-0.8-0.2-1.6-1-1.9c-0.8-0.2-1.6,0.2-1.9,1c-2.1,6.9-6.2,9.3-9.5,10.8l-0.4,0.2c-0.8,0.3-1.1,1.2-0.7,2c0.3,0.6,0.8,0.9,1.4,0.9c0.2,0,0.4,0,0.6-0.1l0.4-0.2C17.1,38.1,22.2,35.3,24.7,27.1z M18.9,29.1c0.5-0.7,0.3-1.6-0.3-2.1c-0.7-0.5-1.6-0.4-2.1,0.3c-2.1,2.9-5.9,4.8-8.2,4.8c-0.8,0-1.5,0.7-1.5,1.5s0.7,1.5,1.5,1.5C11.4,35.1,16.2,32.8,18.9,29.1z M23.2,19.8c-3.2,0-4.3,2.6-5.1,4c-0.4,0.7-0.1,1.6,0.7,2c0.7,0.4,1.6,0.1,2-0.7c0.9-1.7,1.2-2.4,2.4-2.4c1.6,0,2.2,1.6,2.5,2.3c0.2,0.6,0.8,1,1.4,1c0.2,0,0.3,0,0.5-0.1c0.8-0.3,1.2-1.1,0.9-1.9C27.6,21.4,25.6,19.8,23.2,19.8z M27.4,27.5c-0.8-0.1-1.6,0.5-1.7,1.3c-1.1,7.7-6.7,10.2-7,10.4c-0.8,0.3-1.1,1.2-0.8,2c0.2,0.6,0.8,0.9,1.4,0.9c0.2,0,0.4,0,0.6-0.1c0.3-0.1,7.4-3.2,8.8-12.7C28.7,28.4,28.2,27.6,27.4,27.5z M17.6,21.8c0.3-0.8-0.1-1.6-0.9-1.9c-0.8-0.3-1.6,0.1-1.9,0.9c-0.3,1-2.3,6.2-7.2,6.2C6.7,27,6,27.7,6,28.5S6.7,30,7.5,30C12.9,30,16.2,25.6,17.6,21.8z M25,15.1c-3.3-0.3-5.4,0.9-6.6,1.9c-0.7,0.5-0.8,1.5-0.3,2.1c0.3,0.4,0.7,0.6,1.2,0.6c0.3,0,0.6-0.1,0.9-0.3c1-0.7,2.2-1.5,4.5-1.3c0.8,0.1,1.6-0.5,1.6-1.4C26.4,15.9,25.8,15.2,25,15.1z M31.7,32c0,0,0.1,0,0.1,0c0.8,0,1.4-0.6,1.5-1.4c0.2-2.3,0.5-10-3.7-13.6c-0.6-0.5-1.6-0.5-2.1,0.2c-0.5,0.6-0.5,1.6,0.2,2.1c2.4,2.1,2.9,7.2,2.6,11C30.3,31.2,30.9,31.9,31.7,32z M30.9,34.1c-0.8-0.2-1.6,0.3-1.8,1.1c-0.8,3.1-2.5,4-2.6,4.1c-0.7,0.4-1,1.3-0.6,2c0.3,0.5,0.8,0.8,1.3,0.8c0.2,0,0.5-0.1,0.7-0.2c0.1-0.1,2.9-1.5,4.1-5.9C32.2,35.1,31.7,34.3,30.9,34.1z M7.4,25c0.1,0,0.2,0,0.3,0c1.8,0,3.7-1,4.3-2.3c0.3-0.8,0-1.7-0.7-2c-0.8-0.3-1.6,0-2,0.7c-0.2,0.2-1,0.7-1.7,0.6c-0.8-0.1-1.5,0.6-1.6,1.4C6,24.2,6.6,24.9,7.4,25z M19.7,11.1c-3.9,1.3-6.5,4.1-7.9,6.3c-0.5,0.7-0.3,1.6,0.4,2.1c0.3,0.2,0.6,0.3,0.8,0.3c0.5,0,1-0.2,1.2-0.7c1.2-1.8,3.3-4.1,6.4-5.1c0.8-0.3,1.2-1.1,0.9-1.9S20.5,10.8,19.7,11.1z M34.8,16.2c-2.4-3.3-6-5-10.6-5.3c-0.8,0-1.5,0.6-1.6,1.4c0,0.8,0.6,1.5,1.4,1.6c3.7,0.2,6.5,1.6,8.4,4.1c3.6,4.8,3,12.7,2.1,16.2c0,0,0,0,0,0c-0.2,0.8-0.9,3.2-2.3,5.6c-0.4,0.7-0.2,1.6,0.5,2.1C33,42,33.2,42,33.5,42c0.5,0,1-0.3,1.3-0.7c2-3.3,2.7-6.6,2.7-6.7c0,0,0-0.1,0-0.1C38.5,30.1,39,21.8,34.8,16.2z M41.5,27C41.5,27,41.5,27,41.5,27c-0.8,0-1.5,0.6-1.5,1.5c0,0.1-0.1,5-1.4,8.4c-0.3,0.8,0.1,1.6,0.9,1.9c0.2,0.1,0.4,0.1,0.5,0.1c0.6,0,1.2-0.4,1.4-1c1.5-3.9,1.6-9.2,1.6-9.4C43,27.7,42.3,27.1,41.5,27z" />
</svg>