<?xml version="1.0" encoding="utf-8"?>
<svg xmlns="http://www.w3.org/2000/svg" viewBox="0 0 48 48" width="144" height="144">
  <path d="M23.972656 3.9726562 A 2.0002 2.0002 0 0 0 22.001953 6L22 11 A 2.0002 2.0002 0 1 0 26 11L26.001953 6 A 2.0002 2.0002 0 0 0 23.972656 3.9726562 z M 14.910156 6.3867188 A 2.0002 2.0002 0 0 0 13.269531 9.4101562L15.767578 13.740234 A 2.0002 2.0002 0 1 0 19.232422 11.742188L16.732422 7.4101562 A 2.0002 2.0002 0 0 0 14.910156 6.3867188 z M 33.033203 6.3886719 A 2.0002 2.0002 0 0 0 31.269531 7.4121094L28.767578 11.742188 A 2.0003215 2.0003215 0 1 0 32.232422 13.742188L34.732422 9.4140625 A 2.0002 2.0002 0 0 0 33.033203 6.3886719 z M 8.4648438 12.984375 A 2.0002 2.0002 0 0 0 7.4121094 16.728516L11.740234 19.230469 A 2.0002 2.0002 0 1 0 13.742188 15.767578L9.4121094 13.265625 A 2.0002 2.0002 0 0 0 8.4648438 12.984375 z M 39.677734 12.990234 A 2.0002 2.0002 0 0 0 38.587891 13.271484L34.257812 15.769531 A 2.0002 2.0002 0 1 0 36.257812 19.232422L40.587891 16.736328 A 2.0002 2.0002 0 0 0 39.677734 12.990234 z M 5.9980469 21.996094 A 2.0002 2.0002 0 1 0 5.9980469 25.996094L10.998047 25.998047 A 2.0002 2.0002 0 1 0 10.998047 21.998047L5.9980469 21.996094 z M 36.998047 22.001953 A 2.0002 2.0002 0 1 0 36.998047 26.001953L41.998047 26.003906 A 2.0002 2.0002 0 1 0 41.998047 22.003906L36.998047 22.001953 z M 12.828125 28.486328 A 2.0002 2.0002 0 0 0 11.740234 28.765625L7.4082031 31.263672 A 2.0003215 2.0003215 0 1 0 9.4082031 34.728516L13.738281 32.232422 A 2.0002 2.0002 0 0 0 12.828125 28.486328 z M 35.308594 28.488281 A 2.0002 2.0002 0 0 0 34.255859 32.232422L38.583984 34.734375 A 2.0002 2.0002 0 1 0 40.585938 31.271484L36.255859 28.769531 A 2.0002 2.0002 0 0 0 35.308594 28.488281 z M 17.529297 33.232422 A 2.0002 2.0002 0 0 0 15.765625 34.257812L13.263672 38.585938 A 2.0008098 2.0008098 0 1 0 16.728516 40.587891L19.228516 36.257812 A 2.0002 2.0002 0 0 0 17.529297 33.232422 z M 30.40625 33.236328 A 2.0002 2.0002 0 0 0 28.765625 36.257812L31.263672 40.589844 A 2.0003215 2.0003215 0 1 0 34.728516 38.589844L32.228516 34.259766 A 2.0002 2.0002 0 0 0 30.40625 33.236328 z M 23.966797 34.972656 A 2.0002 2.0002 0 0 0 21.996094 37L21.994141 42 A 2.0002 2.0002 0 1 0 25.994141 42L25.996094 37 A 2.0002 2.0002 0 0 0 23.966797 34.972656 z" fill="#5B5B5B" />
</svg>