<?xml version="1.0" encoding="utf-8"?>
<svg xmlns="http://www.w3.org/2000/svg" viewBox="0 0 48 48" width="144" height="144">
  <path d="M12.5 4C10.019 4 8 6.019 8 8.5L8 39.5C8 41.981 10.019 44 12.5 44L25.632812 44C24.778813 43.111 24.049609 42.103 23.474609 41L12.5 41C11.673 41 11 40.327 11 39.5L11 39L22.634766 39C22.226766 37.739 22 36.397 22 35C22 27.82 27.82 22 35 22C36.772 22 38.46 22.357 40 23L40 8.5C40 6.019 37.981 4 35.5 4L12.5 4 z M 17.5 13L30.5 13C31.328 13 32 13.672 32 14.5C32 15.328 31.328 16 30.5 16L17.5 16C16.672 16 16 15.328 16 14.5C16 13.672 16.672 13 17.5 13 z M 35 24C28.925 24 24 28.925 24 35C24 41.075 28.925 46 35 46C41.075 46 46 41.075 46 35C46 28.925 41.075 24 35 24 z M 35 27C35.552 27 36 27.448 36 28L36 34L42 34C42.552 34 43 34.448 43 35C43 35.552 42.552 36 42 36L36 36L36 42C36 42.552 35.552 43 35 43C34.448 43 34 42.552 34 42L34 36L28 36C27.448 36 27 35.552 27 35C27 34.448 27.448 34 28 34L34 34L34 28C34 27.448 34.448 27 35 27 z" fill="#5B5B5B" />
</svg>