<?xml version="1.0" encoding="utf-8"?>
<svg xmlns="http://www.w3.org/2000/svg" viewBox="0 0 48 48" width="50" height="50">
  <path d="M13 7 A 6 6 0 0 0 13 19 A 6 6 0 0 0 13 7 z M 35 7 A 6 6 0 0 0 35 19 A 6 6 0 0 0 35 7 z M 24 15.5C20.64 15.5 17.866689 18.062451 17.533203 21.335938C17.510971 21.55417 17.5 21.776 17.5 22C17.5 25.36 20.062451 28.133311 23.335938 28.466797C23.55417 28.489029 23.776 28.5 24 28.5C27.584 28.5 30.5 25.584 30.5 22C30.5 18.416 27.584 15.5 24 15.5 z M 24 19.5C25.379 19.5 26.5 20.621 26.5 22C26.5 23.379 25.379 24.5 24 24.5C22.621 24.5 21.5 23.379 21.5 22C21.5 21.827625 21.517436 21.658721 21.550781 21.496094C21.784201 20.357705 22.793375 19.5 24 19.5 z M 7.5 21C5.57 21 4 22.57 4 24.5L4 27C4 30.297 7.7982188 32.887234 12.699219 32.990234C13.371219 30.412234 15.714 28.5 18.5 28.5L18.533203 28.5C16.681203 26.939 15.5 24.606 15.5 22C15.5 21.661 15.525453 21.329 15.564453 21L7.5 21 z M 32.435547 21C32.474547 21.329 32.5 21.661 32.5 22C32.5 24.606 31.318797 26.939 29.466797 28.5L29.5 28.5C32.286 28.5 34.628781 30.412234 35.300781 32.990234C40.201781 32.887234 44 30.297 44 27L44 24.5C44 22.57 42.43 21 40.5 21L32.435547 21 z M 18.5 30.5C16.294 30.5 14.5 32.294 14.5 34.5L14.5 37C14.5 40.645 18.673 43.5 24 43.5C29.327 43.5 33.5 40.645 33.5 37L33.5 34.5C33.5 32.294 31.706 30.5 29.5 30.5L18.5 30.5 z M 18.5 34.5L29.5 34.5L29.5 37C29.5 37.995 27.307 39.5 24 39.5C20.693 39.5 18.5 37.995 18.5 37L18.5 34.5 z" fill="#5B5B5B" />
</svg>