<?xml version="1.0" encoding="utf-8"?>
<svg xmlns="http://www.w3.org/2000/svg" viewBox="0 0 48 48" width="144" height="144">
  <path d="M23.984375 5.9863281 A 1.0001 1.0001 0 0 0 23 7L23 13 A 1.0001 1.0001 0 1 0 25 13L25 7 A 1.0001 1.0001 0 0 0 23.984375 5.9863281 z M 13.869141 9.8691406 A 1.0001 1.0001 0 0 0 13.171875 11.585938L17.414062 15.828125 A 1.0001 1.0001 0 1 0 18.828125 14.414062L14.585938 10.171875 A 1.0001 1.0001 0 0 0 13.869141 9.8691406 z M 34.101562 9.8691406 A 1.0001 1.0001 0 0 0 33.414062 10.171875L29.171875 14.414062 A 1.0001 1.0001 0 1 0 30.585938 15.828125L34.828125 11.585938 A 1.0001 1.0001 0 0 0 34.101562 9.8691406 z M 24 16C22.458334 16 21.112148 16.632133 20.253906 17.597656C19.395664 18.563179 19 19.791667 19 21C19 22.208333 19.395664 23.436821 20.253906 24.402344C21.112148 25.367867 22.458334 26 24 26C25.541666 26 26.887852 25.367867 27.746094 24.402344C28.604336 23.436821 29 22.208333 29 21C29 19.791667 28.604336 18.563179 27.746094 17.597656C26.887852 16.632133 25.541666 16 24 16 z M 24 19C24.791666 19 25.195482 19.242867 25.503906 19.589844C25.81233 19.936821 26 20.458333 26 21C26 21.541667 25.81233 22.063179 25.503906 22.410156C25.195482 22.757133 24.791666 23 24 23C23.208334 23 22.804518 22.757133 22.496094 22.410156C22.18767 22.063179 22 21.541667 22 21C22 20.458333 22.18767 19.936821 22.496094 19.589844C22.804518 19.242867 23.208334 19 24 19 z M 9 22C7.4583337 22 6.1121484 22.632133 5.2539062 23.597656C4.3956641 24.563179 4 25.791667 4 27C4 28.208333 4.3956641 29.436821 5.2539062 30.402344C6.1121484 31.367867 7.4583337 32 9 32C10.541666 32 11.887852 31.367867 12.746094 30.402344C13.604336 29.436821 14 28.208333 14 27C14 25.791667 13.604336 24.563179 12.746094 23.597656C11.887852 22.632133 10.541666 22 9 22 z M 39 22C37.458334 22 36.112148 22.632133 35.253906 23.597656C34.395664 24.563179 34 25.791667 34 27C34 28.208333 34.395664 29.436821 35.253906 30.402344C36.112148 31.367867 37.458334 32 39 32C40.541666 32 41.887852 31.367867 42.746094 30.402344C43.604336 29.436821 44 28.208333 44 27C44 25.791667 43.604336 24.563179 42.746094 23.597656C41.887852 22.632133 40.541666 22 39 22 z M 9 25C9.791666 25 10.195482 25.242867 10.503906 25.589844C10.81233 25.936821 11 26.458333 11 27C11 27.541667 10.81233 28.063179 10.503906 28.410156C10.195482 28.757133 9.791666 29 9 29C8.208334 29 7.8045177 28.757133 7.4960938 28.410156C7.1876698 28.063179 7 27.541667 7 27C7 26.458333 7.1876698 25.936821 7.4960938 25.589844C7.8045177 25.242867 8.208334 25 9 25 z M 39 25C39.791666 25 40.195482 25.242867 40.503906 25.589844C40.81233 25.936821 41 26.458333 41 27C41 27.541667 40.81233 28.063179 40.503906 28.410156C40.195482 28.757133 39.791666 29 39 29C38.208334 29 37.804518 28.757133 37.496094 28.410156C37.18767 28.063179 37 27.541667 37 27C37 26.458333 37.18767 25.936821 37.496094 25.589844C37.804518 25.242867 38.208334 25 39 25 z M 18.052734 28C16.384766 28 15 29.384766 15 31.052734L15 38.949219C15 40.778128 16.154905 42.35297 17.769531 43.382812C19.384158 44.412656 21.526281 45.001953 24 45.001953C26.473607 45.001953 28.613818 44.412548 30.228516 43.382812C31.843213 42.353077 33 40.77836 33 38.949219L33 31.052734C33 29.384766 31.615234 28 29.947266 28L18.052734 28 z M 18.052734 31L29.947266 31C29.993297 31 30 31.006703 30 31.052734L30 38.949219C30 39.503077 29.637239 40.203001 28.617188 40.853516C27.597135 41.50403 25.987393 42.001953 24 42.001953C22.012719 42.001953 20.402936 41.504172 19.382812 40.853516C18.362689 40.202859 18 39.502309 18 38.949219L18 31.052734C18 31.006703 18.006703 31 18.052734 31 z M 3.0527344 34C1.3697344 34 2.9605947e-16 35.369734 0 37.052734L0 38.949219C0 42.399219 3.869 45.001953 9 45.001953C11.3 45.001953 13.342391 44.475891 14.900391 43.587891C13.695391 42.292891 13 40.705219 13 38.949219L13 34L3.0527344 34 z M 35 34L35 38.949219C35 40.704219 34.304609 42.292891 33.099609 43.587891C34.657609 44.475891 36.7 45.001953 39 45.001953C44.131 45.001953 48 42.399219 48 38.949219L48 37.052734C48 35.369734 46.630266 34 44.947266 34L35 34 z" fill="#5B5B5B" />
</svg>