<?xml version="1.0" encoding="utf-8"?>
<svg xmlns="http://www.w3.org/2000/svg" viewBox="0 0 64 64" width="512" height="512">
  <path d="M32,4C16.561,4,4,16.561,4,32s12.561,28,28,28s28-12.561,28-28S47.439,4,32,4z M31.724,44c-3.09,0-5.203-1.107-6.406-3.318l2.959-2.113c0.618,1.268,1.756,2.016,3.479,2.016c1.951,0,3.448-1.561,3.448-3.74c0-2.862-1.496-4.064-3.675-4.064h-1.365v-3.447h1.365c1.789,0,2.699-1.009,2.699-3.122c0-1.659-0.878-2.764-2.57-2.764c-1.43,0-1.885,0.52-2.504,1.398l-2.894-1.137C26.682,22.081,28.732,20,31.724,20c3.154,0,5.657,2.081,5.657,5.984c0,2.407-0.78,3.968-2.374,4.877c1.789,0.585,3.675,2.862,3.675,5.951C38.682,41.008,36.113,44,31.724,44z" fill="#5B5B5B" />
</svg>