<?xml version="1.0" encoding="utf-8"?>
<svg xmlns="http://www.w3.org/2000/svg" viewBox="0 0 48 48" width="144" height="144">
  <path d="M16.5 5 A 1.50015 1.50015 0 0 0 15 6.5L15 14L11.5 14C7.364 14 4 17.364 4 21.5L4 35.5C4 39.636 7.364 43 11.5 43L24.767578 43C23.039578 40.793 22 38.02 22 35C22 27.82 27.82 22 35 22C38.496 22 41.664 23.386813 44 25.632812L44 21.5C44 17.364 40.636 14 36.5 14L33 14L33 6.5 A 1.50015 1.50015 0 0 0 31.5 5L16.5 5 z M 18 8L30 8L30 14L18 14L18 8 z M 31.644531 24.513672C30.936992 24.598018 30.292891 25.091875 30.087891 25.859375L29.757812 27.091797C29.558813 27.834797 28.915437 28.374406 28.148438 28.441406L26.878906 28.552734C25.611906 28.662734 24.840906 29.996437 25.378906 31.148438L25.917969 32.304688C26.242969 33.002688 26.097734 33.829047 25.552734 34.373047L24.650391 35.275391C23.751391 36.174391 24.019875 37.693469 25.171875 38.230469L26.328125 38.769531C27.026125 39.094531 27.445906 39.820891 27.378906 40.587891L27.265625 41.859375C27.154625 43.125375 28.337453 44.116109 29.564453 43.787109L30.796875 43.455078C31.540875 43.255078 32.328531 43.542828 32.769531 44.173828L33.501953 45.21875C34.229953 46.25975 35.771 46.25975 36.5 45.21875L37.230469 44.173828C37.671469 43.543828 38.461078 43.255078 39.205078 43.455078L40.4375 43.787109C41.6655 44.116109 42.845375 43.125375 42.734375 41.859375L42.623047 40.587891C42.555047 39.820891 42.975828 39.094531 43.673828 38.769531L44.828125 38.230469C45.980125 37.693469 46.248609 36.173391 45.349609 35.275391L44.447266 34.373047C43.902266 33.829047 43.756031 33.002688 44.082031 32.304688L44.623047 31.148438C45.160047 29.997438 44.389047 28.662734 43.123047 28.552734L41.851562 28.441406C41.084563 28.374406 40.441187 27.835797 40.242188 27.091797L39.912109 25.859375C39.584109 24.631375 38.136703 24.103031 37.095703 24.832031L36.050781 25.564453C35.420781 26.006453 34.580172 26.006453 33.951172 25.564453L32.90625 24.832031C32.51625 24.558656 32.069055 24.463064 31.644531 24.513672 z" fill="#5B5B5B" />
</svg>