<?xml version="1.0" encoding="utf-8"?>
<svg xmlns="http://www.w3.org/2000/svg" viewBox="0 0 48 48" width="144" height="144">
  <path d="M24 4C19.599415 4 16 7.599415 16 12L16 16L12.5 16C10.019 16 8 18.019 8 20.5L8 39.5C8 41.981 10.019 44 12.5 44L35.5 44C37.981 44 40 41.981 40 39.5L40 20.5C40 18.019 37.981 16 35.5 16L32 16L32 12C32 7.599415 28.400585 4 24 4 z M 24 7C26.779415 7 29 9.220585 29 12L29 16L19 16L19 12C19 9.220585 21.220585 7 24 7 z M 24 27C25.657 27 27 28.343 27 30C27 31.657 25.657 33 24 33C22.343 33 21 31.657 21 30C21 28.343 22.343 27 24 27 z" fill="#5B5B5B" />
</svg>