<?xml version="1.0" encoding="utf-8"?>
<svg xmlns="http://www.w3.org/2000/svg" viewBox="0 0 48 48" width="144" height="144">
  <path d="M33.974 29.144L18.857 14.026c-.851-.851-2.062-1.205-3.238-.941-1.176.262-2.122 1.095-2.53 2.228l-10 27.678c-.197.547-.061 1.159.351 1.57C3.726 44.847 4.109 45 4.5 45c.171 0 .344-.029.51-.089l27.677-10c1.134-.408 1.967-1.354 2.229-2.53C35.178 31.205 34.825 29.994 33.974 29.144zM42.62 9.62c-1.64 1.64-3.22 1.77-4.5 1.88-1.06.08-1.76.14-2.62 1s-.92 1.56-1.01 2.62c-.1 1.28-.23 2.86-1.87 4.5-1.15 1.15-2.27 1.56-3.27 1.73l-2.69-2.69c.43-.09.84-.12 1.22-.15 1.06-.09 1.76-.15 2.62-1.01s.92-1.56 1-2.62c.11-1.27.24-2.86 1.88-4.5 1.64-1.64 3.22-1.77 4.5-1.87 1.06-.09 1.76-.15 2.62-1.01.59-.59 1.54-.59 2.12 0C43.21 8.08 43.21 9.04 42.62 9.62zM23.4 15.4l-2.14-2.14c2.05-2.9 2.2-5.49.83-9.25-.28-.78.12-1.64.9-1.92.78-.28 1.64.12 1.92.9C26.69 7.9 26.32 11.52 23.4 15.4zM45.91 25c-.28.77-1.15 1.18-1.92.89-3.78-1.37-6.36-1.22-9.26.84l-2.14-2.14c3.89-2.93 7.51-3.3 12.42-1.52C45.79 23.36 46.19 24.22 45.91 25zM30.108 7.631l-.739-.739c-.493-.493-.493-1.291 0-1.784l.739-.739c.493-.493 1.291-.493 1.784 0l.739.739c.493.493.493 1.291 0 1.784l-.739.739C31.399 8.123 30.601 8.123 30.108 7.631zM8.108 15.131l-.739-.739c-.493-.493-.493-1.291 0-1.784l.739-.739c.493-.493 1.291-.493 1.784 0l.739.739c.493.493.493 1.291 0 1.784l-.739.739C9.399 15.623 8.601 15.623 8.108 15.131zM39.108 19.631l-.739-.739c-.493-.493-.493-1.291 0-1.784l.739-.739c.493-.493 1.291-.493 1.784 0l.739.739c.493.493.493 1.291 0 1.784l-.739.739C40.399 20.123 39.601 20.123 39.108 19.631zM39.108 32.631l-.739-.739c-.493-.493-.493-1.291 0-1.784l.739-.739c.493-.493 1.291-.493 1.784 0l.739.739c.493.493.493 1.291 0 1.784l-.739.739C40.399 33.123 39.601 33.123 39.108 32.631zM36.108 39.631l-.739-.739c-.493-.493-.493-1.291 0-1.784l.739-.739c.493-.493 1.291-.493 1.784 0l.739.739c.493.493.493 1.291 0 1.784l-.739.739C37.399 40.123 36.601 40.123 36.108 39.631zM14.108 10.631l-.739-.739c-.493-.493-.493-1.291 0-1.784l.739-.739c.493-.493 1.291-.493 1.784 0l.739.739c.493.493.493 1.291 0 1.784l-.739.739C15.399 11.123 14.601 11.123 14.108 10.631z" fill="#5B5B5B" />
</svg>