<?xml version="1.0" encoding="utf-8"?>
<svg xmlns="http://www.w3.org/2000/svg" viewBox="0 0 48 48" width="480" height="480">
  <path fill="#039be5" d="M42,7c-1.657,0-3,1.343-3,3s1.343,3,3,3s3-1.343,3-3S43.657,7,42,7z M42,11c-0.552,0-1-0.448-1-1s0.448-1,1-1s1,0.448,1,1S42.552,11,42,11z" />
  <path fill="#ff9800" d="M24,43C10.542,43,0,37.557,0,30.608c0-2.591,1.475-5.054,4.264-7.123c0.445-0.329,1.07-0.235,1.399,0.208c0.329,0.443,0.236,1.07-0.208,1.398C3.879,26.261,2,28.167,2,30.608C2,36.242,12.075,41,24,41c11.925,0,22-4.759,22-10.393c0-2.285-1.707-4.563-4.806-6.412c-0.474-0.283-0.629-0.897-0.346-1.372c0.282-0.475,0.896-0.629,1.371-0.346c3.728,2.225,5.78,5.112,5.78,8.13C48,37.557,37.458,43,24,43z" />
  <path fill="#039be5" d="M11.756,18.395h1.349c0.512,0,0.888-0.179,1.127-0.536c0.24-0.358,0.359-0.835,0.359-1.432 c0-0.571-0.123-1.015-0.369-1.334c-0.246-0.318-0.576-0.477-0.989-0.477c-0.387,0-0.704,0.151-0.95,0.453 c-0.246,0.302-0.369,0.683-0.369,1.142H9.128c0-0.748,0.172-1.419,0.517-2.013c0.345-0.594,0.827-1.058,1.447-1.393 c0.62-0.334,1.307-0.502,2.062-0.502c1.319,0,2.353,0.364,3.101,1.093c0.748,0.729,1.122,1.726,1.122,2.992 c0,0.65-0.169,1.252-0.507,1.806c-0.338,0.554-0.783,0.98-1.334,1.275c0.676,0.289,1.18,0.722,1.511,1.299 c0.331,0.578,0.497,1.26,0.497,2.048c0,1.273-0.405,2.294-1.216,3.061c-0.811,0.768-1.875,1.152-3.194,1.152 c-1.227,0-2.224-0.379-2.988-1.137C9.382,25.134,9,24.138,9,22.904h2.786c0,0.512,0.134,0.942,0.404,1.289 c0.269,0.348,0.61,0.522,1.024,0.522c0.479,0,0.858-0.177,1.137-0.531c0.279-0.354,0.419-0.827,0.419-1.417 c0-1.411-0.548-2.12-1.644-2.126h-1.368V18.395z" />
  <path fill="#039be5" d="M26.118,12.351v2.363h-0.156c-1.043,0.006-1.873,0.32-2.486,0.94 c-0.614,0.62-0.986,1.488-1.118,2.604c0.598-0.683,1.346-1.024,2.245-1.024c1.037,0,1.864,0.443,2.485,1.329 c0.621,0.886,0.931,2.067,0.931,3.543c0,0.939-0.177,1.785-0.531,2.54c-0.356,0.754-0.853,1.34-1.492,1.757 c-0.641,0.417-1.364,0.625-2.171,0.625c-1.299,0-2.341-0.522-3.125-1.565c-0.784-1.043-1.177-2.448-1.177-4.213v-1.034 c0-1.582,0.248-2.967,0.744-4.154c0.495-1.188,1.211-2.102,2.146-2.741c0.935-0.64,2.026-0.963,3.273-0.97H26.118z M23.726,19.527 c-0.355,0-0.652,0.111-0.891,0.335c-0.24,0.224-0.418,0.5-0.536,0.829v1.006c0,1.013,0.134,1.769,0.403,2.268 c0.269,0.5,0.623,0.749,1.063,0.749c0.446,0,0.804-0.241,1.073-0.725c0.269-0.483,0.403-1.103,0.403-1.859 c0-0.769-0.14-1.396-0.418-1.879C24.545,19.769,24.179,19.527,23.726,19.527z" />
  <path fill="#039be5" d="M38,20.905c0,1.982-0.36,3.498-1.078,4.548c-0.718,1.05-1.744,1.575-3.076,1.575 c-1.319,0-2.339-0.51-3.057-1.531c-0.718-1.02-1.091-2.483-1.117-4.386v-2.707c0-1.975,0.357-3.487,1.073-4.533 c0.715-1.047,1.742-1.57,3.081-1.57c1.339,0,2.365,0.519,3.081,1.555c0.715,1.037,1.079,2.517,1.093,4.44V20.905z M35.204,18.001 c0-1.128-0.111-1.975-0.334-2.54c-0.223-0.564-0.571-0.847-1.043-0.847c-0.886,0-1.346,1.034-1.379,3.101v3.573 c0,1.155,0.114,2.015,0.34,2.579c0.226,0.565,0.579,0.846,1.058,0.846c0.453,0,0.789-0.264,1.009-0.792 c0.219-0.528,0.337-1.337,0.349-2.426V18.001z" />
</svg>