<svg xmlns="http://www.w3.org/2000/svg" width="72" height="72" viewBox="0 0 72 72"><path d="M38,2.008a35.995,35.995,0,0,0-2.724,71.887l.11.009c.864.062,1.733.1,2.614.1s1.749-.042,2.614-.1l.11-.009A35.995,35.995,0,0,0,38,2.008Zm0,3.13A32.865,32.865,0,0,1,61.463,61.021a32.033,32.033,0,0,0-8.315-3.858c-3.262-1.143-6.348-2.226-7.2-4.109-.135-1.607-.123-2.863-.11-4.3l0-.611a15.2,15.2,0,0,0,3.736-6.692c1.033-.551,2.3-1.872,2.675-5.035a4.847,4.847,0,0,0-.883-3.6c.845-2.9,2.527-10.254-.419-15a8.211,8.211,0,0,0-5.6-3.769c-1.388-1.719-4.008-2.657-7.511-2.657-5.323.1-9.226,1.729-11.592,4.845-2.791,3.678-3.318,9.236-1.571,16.527a4.832,4.832,0,0,0-.92,3.65c.38,3.163,1.639,4.484,2.672,5.035a15.175,15.175,0,0,0,3.736,6.7l0,.6c.013,1.448.025,2.706-.11,4.32-.858,1.888-3.958,2.983-7.236,4.139a32.7,32.7,0,0,0-8.275,3.837A32.867,32.867,0,0,1,38,5.138Z" transform="translate(-2 -2.008)" fill="#5b5b5b"/></svg>