<svg xmlns="http://www.w3.org/2000/svg" width="50.019" height="50" viewBox="0 0 50.019 50"><g transform="translate(-24.991 -25)"><path d="M44.912,41.333A14.058,14.058,0,1,0,32.389,49H49a19.054,19.054,0,0,1-4.052-7.592M43.506,26A19.167,19.167,0,1,0,6.646,28.556C9.391,36.252,3,41.333,3,41.333H19.611" transform="translate(24 24)" fill="#02457a"/><path d="M49,51H32.389A16.082,16.082,0,0,1,18.7,43.333H3a2,2,0,0,1-1.249-3.562,11.22,11.22,0,0,0,2.422-3.036,8.865,8.865,0,0,0,.589-7.507l0-.005a21.171,21.171,0,1,1,41.128-7.055,21.36,21.36,0,0,1-.309,3.62,16.014,16.014,0,0,1,2.864,9.157,16.841,16.841,0,0,1-1.361,6.587,17.135,17.135,0,0,0,3.335,6.059A1.994,1.994,0,0,1,49,51ZM32.389,22.889a12.056,12.056,0,1,0,0,24.111H45.145a24.377,24.377,0,0,1-2.115-5.022,2,2,0,0,1,.11-1.426,13.023,13.023,0,0,0,1.3-5.607A12.069,12.069,0,0,0,32.389,22.889ZM7.288,39.333H16.94A16.057,16.057,0,0,1,41.888,22,17.167,17.167,0,1,0,8.532,27.889,12.883,12.883,0,0,1,7.6,38.811Q7.445,39.08,7.288,39.333Z" transform="translate(24 24)" fill="#f5f5f5"/></g></svg>