<svg xmlns="http://www.w3.org/2000/svg" width="34" height="34" viewBox="0 0 34 34"><path d="M5.777,2h5.009a4.715,4.715,0,0,1,1.743.185,2.788,2.788,0,0,1,1.1.771A4.715,4.715,0,0,1,14.4,4.53l2.073,5.7a4.762,4.762,0,0,1,.462,1.956,2.776,2.776,0,0,1-.506,1.426,4.759,4.759,0,0,1-1.591,1.228l-1.652.991a20.414,20.414,0,0,0,8.982,8.983l.991-1.652a4.757,4.757,0,0,1,1.228-1.591,2.776,2.776,0,0,1,1.426-.506c.048,0,.1,0,.147,0a5.4,5.4,0,0,1,1.809.467l5.7,2.073a4.714,4.714,0,0,1,1.575.769,2.785,2.785,0,0,1,.771,1.1A4.712,4.712,0,0,1,36,27.215v5.009a4.559,4.559,0,0,1-.276,2.081,2.884,2.884,0,0,1-1.116,1.2,4.192,4.192,0,0,1-1.937.418c-.7.051-1.411.077-2.116.077A28.378,28.378,0,0,1,19.44,33.756,28.533,28.533,0,0,1,2,7.444c0-.7.026-1.415.077-2.114A4.193,4.193,0,0,1,2.5,3.392,2.885,2.885,0,0,1,3.7,2.276,4.562,4.562,0,0,1,5.777,2ZM22.555,27.111a1,1,0,0,1-.412-.089,22.311,22.311,0,0,1-6.593-4.571,22.375,22.375,0,0,1-4.571-6.593,1,1,0,0,1,.4-1.271l2.433-1.46a4.844,4.844,0,0,0,.989-.67.777.777,0,0,0,.142-.4,4.841,4.841,0,0,0-.345-1.142l-2.073-5.7a4.6,4.6,0,0,0-.4-.946.781.781,0,0,0-.308-.216A4.6,4.6,0,0,0,10.785,4H5.777a4.23,4.23,0,0,0-1.212.077.9.9,0,0,0-.336.313,3.31,3.31,0,0,0-.157,1.086C4.024,6.127,4,6.789,4,7.444A26.586,26.586,0,0,0,30.556,34c.656,0,1.318-.024,1.968-.072a3.312,3.312,0,0,0,1.087-.157.9.9,0,0,0,.312-.336A4.225,4.225,0,0,0,34,32.223V27.215a4.6,4.6,0,0,0-.052-1.026.779.779,0,0,0-.216-.309,4.588,4.588,0,0,0-.945-.4l-5.7-2.073a5.343,5.343,0,0,0-1.126-.346h-.017a.778.778,0,0,0-.4.142,4.842,4.842,0,0,0-.669.988l-1.46,2.434A1,1,0,0,1,22.555,27.111Z" transform="translate(-2 -2)" fill="#97cadb"/></svg>