<svg xmlns="http://www.w3.org/2000/svg" width="320.809" height="73.18" viewBox="0 0 320.809 73.18"><g transform="translate(3.543 3.546)"><path d="M654,449.333s-2.734-20.311,9.333-37.333C675.066,395.448,706,383.333,734,408" transform="translate(-653.734 -393.979)" fill="none" stroke="#f5f5f5" stroke-linecap="round" stroke-linejoin="round" stroke-width="7"/><path d="M653.9,431.979s-1.58-14.314,5.837-26c7.211-11.363,27.333-18,43.333-6" transform="translate(-638.135 -377.959)" fill="none" stroke="#f5f5f5" stroke-linecap="round" stroke-linejoin="round" stroke-width="7"/><path d="M653.816,417.608a21.035,21.035,0,0,1,0-14.667c2.93-7.3,12.863-10.667,19.333-8.667" transform="translate(-622.216 -362.921)" fill="none" stroke="#f5f5f5" stroke-linecap="round" stroke-linejoin="round" stroke-width="7"/><path d="M726.224,436.715s-16.489-.4-18.222,6.618,0,18,18.222,16.667,32.17,3.431,32.845-23.285c-2-13.069-12.615-17.312-22.047-14.715C726.534,424.885,726.224,436.715,726.224,436.715Z" transform="translate(-653.734 -393.979)" fill="none" stroke="#f5f5f5" stroke-linejoin="round" stroke-width="7"/><g transform="translate(-416.734 -291)"><g transform="translate(542 309)"><text transform="translate(0 24)" fill="#f5f5f5" font-size="23" font-family="Poppins-Bold, Poppins" font-weight="700"><tspan x="0" y="0">Saftech Canada</tspan></text><text transform="translate(2 44)" fill="#f5f5f5" font-size="13" font-family="Poppins-Light, Poppins" font-weight="300"><tspan x="0" y="0">More that a tech company</tspan></text></g></g></g></svg>